<svg width="61" height="59" fill="none" xmlns="http://www.w3.org/2000/svg"><g filter="url('#filter0_d_131_1095')"><path fill="#fff" d="M7.374 4h46.107v46H7.374z"/><path fill-rule="evenodd" clip-rule="evenodd" d="M8.193.966c-2.112 0-3.826 1.6-3.826 3.57V47.23c0 1.97 1.714 3.568 3.826 3.568h44.11c2.113 0 3.825-1.598 3.825-3.569V4.536c0-1.97-1.712-3.57-3.825-3.57H8.193Zm8.03 19.269a3.873 3.873 0 0 1 3.874 3.873v14.69a3.873 3.873 0 1 1-7.745 0v-14.69a3.873 3.873 0 0 1 3.872-3.873Zm4.384-6.938c0 2.152-1.681 3.875-4.381 3.875h-.051c-2.6 0-4.28-1.723-4.28-3.876 0-2.201 1.73-3.876 4.382-3.876 2.649 0 4.28 1.675 4.33 3.877Zm11.522 25.51a3.864 3.864 0 1 1-7.728-.016c.016-4.068.036-10.436.025-14.597-.006-2.159 1.765-3.958 3.924-3.958h3.037c.41 0 .742.332.742.743 0 .733 1.027 1.073 1.578.59 1.152-1.01 2.835-1.86 5.403-1.86 5.096 0 8.916 3.207 8.916 10.097v8.992a3.872 3.872 0 0 1-7.745 0v-8.129c0-3.016-1.12-5.073-3.923-5.073-2.14 0-3.414 1.387-3.974 2.727-.205.479-.255 1.15-.255 1.82v8.664Z" fill="#456E6D"/></g><defs><filter id="filter0_d_131_1095" x=".367" y=".966" width="59.761" height="57.833" filterUnits="userSpaceOnUse" color-interpolation-filters="sRGB"><feFlood flood-opacity="0" result="BackgroundImageFix"/><feColorMatrix in="SourceAlpha" values="0 0 0 0 0 0 0 0 0 0 0 0 0 0 0 0 0 0 127 0" result="hardAlpha"/><feOffset dy="4"/><feGaussianBlur stdDeviation="2"/><feComposite in2="hardAlpha" operator="out"/><feColorMatrix values="0 0 0 0 0 0 0 0 0 0 0 0 0 0 0 0 0 0 0.25 0"/><feBlend in2="BackgroundImageFix" result="effect1_dropShadow_131_1095"/><feBlend in="SourceGraphic" in2="effect1_dropShadow_131_1095" result="shape"/></filter></defs></svg>