<svg width="27" height="28" fill="none" xmlns="http://www.w3.org/2000/svg"><path fill-rule="evenodd" clip-rule="evenodd" d="M1.995.105C.894.105 0 .972 0 2.04v23.133c0 1.067.894 1.933 1.995 1.933h23.01c1.102 0 1.995-.866 1.995-1.933V2.039C27 .972 26.107.105 25.005.105H1.994Zm4.19 10.44a2.02 2.02 0 0 1 2.02 2.02v8.116a2.02 2.02 0 0 1-4.04 0v-8.116a2.02 2.02 0 0 1 2.02-2.02ZM8.47 6.786c0 1.167-.877 2.1-2.285 2.1h-.027c-1.356 0-2.233-.934-2.233-2.1 0-1.193.904-2.1 2.286-2.1 1.382 0 2.233.907 2.26 2.1Zm6.01 13.9a2.015 2.015 0 0 1-2.015 2.015 2.014 2.014 0 0 1-2.016-2.022c.008-2.226.02-5.79.013-8.07-.003-1.125.92-2.063 2.045-2.063h1.58c.218 0 .394.176.394.393 0 .39.553.57.845.309.6-.539 1.473-.988 2.796-.988 2.658 0 4.65 1.738 4.65 5.471v4.95a2.02 2.02 0 1 1-4.04 0v-4.482c.001-1.635-.584-2.75-2.046-2.75-1.116 0-1.78.752-2.073 1.479-.107.259-.133.623-.133.985v4.773Z" fill="#C3A9B5"/></svg>